{
	"asset":{
		"generator":"Khronos glTF Blender I/O v3.6.27",
		"version":"2.0"
	},
	"extensionsUsed":[
		"KHR_materials_specular",
		"KHR_materials_ior"
	],
	"scene":0,
	"scenes":[
		{
			"name":"Scene",
			"nodes":[
				0,
				1,
				2,
				3
			]
		}
	],
	"nodes":[
		{
			"mesh":0,
			"name":"Ico1",
			"translation":[
				0.01234937459230423,
				0,
				0
			]
		},
		{
			"mesh":1,
			"name":"Plane",
			"scale":[
				15,
				1,
				15
			],
			"translation":[
				0,
				-3,
				0
			]
		},
		{
			"mesh":2,
			"name":"Ico1.001",
			"rotation":[
				0,
				0,
				0.26056206226348877,
				0.9654571413993835
			],
			"translation":[
				-4,
				0,
				0
			]
		},
		{
			"mesh":3,
			"name":"Ico1.002",
			"translation":[
				4,
				0,
				0
			]
		}
	],
	"animations":[
		{
			"channels":[
				{
					"sampler":0,
					"target":{
						"node":0,
						"path":"translation"
					}
				},
				{
					"sampler":1,
					"target":{
						"node":0,
						"path":"rotation"
					}
				},
				{
					"sampler":2,
					"target":{
						"node":2,
						"path":"translation"
					}
				},
				{
					"sampler":3,
					"target":{
						"node":2,
						"path":"rotation"
					}
				},
				{
					"sampler":4,
					"target":{
						"node":3,
						"path":"translation"
					}
				},
				{
					"sampler":5,
					"target":{
						"node":3,
						"path":"rotation"
					}
				}
			],
			"name":"rotate",
			"samplers":[
				{
					"input":14,
					"interpolation":"STEP",
					"output":15
				},
				{
					"input":16,
					"interpolation":"LINEAR",
					"output":17
				},
				{
					"input":14,
					"interpolation":"STEP",
					"output":18
				},
				{
					"input":16,
					"interpolation":"LINEAR",
					"output":19
				},
				{
					"input":14,
					"interpolation":"STEP",
					"output":20
				},
				{
					"input":16,
					"interpolation":"LINEAR",
					"output":21
				}
			]
		},
		{
			"channels":[
				{
					"sampler":0,
					"target":{
						"node":0,
						"path":"translation"
					}
				},
				{
					"sampler":1,
					"target":{
						"node":0,
						"path":"rotation"
					}
				},
				{
					"sampler":2,
					"target":{
						"node":2,
						"path":"translation"
					}
				},
				{
					"sampler":3,
					"target":{
						"node":2,
						"path":"rotation"
					}
				},
				{
					"sampler":4,
					"target":{
						"node":3,
						"path":"translation"
					}
				},
				{
					"sampler":5,
					"target":{
						"node":3,
						"path":"rotation"
					}
				}
			],
			"name":"flyRotate",
			"samplers":[
				{
					"input":16,
					"interpolation":"LINEAR",
					"output":22
				},
				{
					"input":16,
					"interpolation":"LINEAR",
					"output":23
				},
				{
					"input":16,
					"interpolation":"LINEAR",
					"output":24
				},
				{
					"input":16,
					"interpolation":"LINEAR",
					"output":25
				},
				{
					"input":16,
					"interpolation":"LINEAR",
					"output":26
				},
				{
					"input":16,
					"interpolation":"LINEAR",
					"output":27
				}
			]
		},
		{
			"channels":[
				{
					"sampler":0,
					"target":{
						"node":0,
						"path":"translation"
					}
				},
				{
					"sampler":1,
					"target":{
						"node":0,
						"path":"rotation"
					}
				},
				{
					"sampler":2,
					"target":{
						"node":2,
						"path":"translation"
					}
				},
				{
					"sampler":3,
					"target":{
						"node":2,
						"path":"rotation"
					}
				},
				{
					"sampler":4,
					"target":{
						"node":3,
						"path":"translation"
					}
				},
				{
					"sampler":5,
					"target":{
						"node":3,
						"path":"rotation"
					}
				}
			],
			"name":"fly",
			"samplers":[
				{
					"input":16,
					"interpolation":"LINEAR",
					"output":28
				},
				{
					"input":14,
					"interpolation":"STEP",
					"output":29
				},
				{
					"input":16,
					"interpolation":"LINEAR",
					"output":30
				},
				{
					"input":14,
					"interpolation":"STEP",
					"output":31
				},
				{
					"input":16,
					"interpolation":"LINEAR",
					"output":32
				},
				{
					"input":14,
					"interpolation":"STEP",
					"output":33
				}
			]
		}
	],
	"materials":[
		{
			"doubleSided":true,
			"extensions":{
				"KHR_materials_specular":{
					"specularColorFactor":[
						0.04214365082647997,
						0.04214365082647997,
						0.04214365082647997
					]
				},
				"KHR_materials_ior":{
					"ior":14.549999237060547
				}
			},
			"name":"Calcaire blanc",
			"normalTexture":{
				"index":0
			},
			"pbrMetallicRoughness":{
				"metallicFactor":0,
				"metallicRoughnessTexture":{
					"index":1
				},
				"roughnessFactor":0.2000000774860382
			}
		}
	],
	"meshes":[
		{
			"name":"Icosphere",
			"primitives":[
				{
					"attributes":{
						"POSITION":0,
						"NORMAL":1,
						"TEXCOORD_0":2
					},
					"indices":3
				}
			]
		},
		{
			"name":"Plane",
			"primitives":[
				{
					"attributes":{
						"POSITION":4,
						"NORMAL":5,
						"TEXCOORD_0":6
					},
					"indices":7,
					"material":0
				}
			]
		},
		{
			"name":"Icosphere.003",
			"primitives":[
				{
					"attributes":{
						"POSITION":8,
						"NORMAL":9,
						"TEXCOORD_0":10
					},
					"indices":3
				}
			]
		},
		{
			"name":"Icosphere.004",
			"primitives":[
				{
					"attributes":{
						"POSITION":11,
						"NORMAL":12,
						"TEXCOORD_0":13
					},
					"indices":3
				}
			]
		}
	],
	"textures":[
		{
			"sampler":0,
			"source":0
		},
		{
			"sampler":0,
			"source":1
		}
	],
	"images":[
		{
			"bufferView":8,
			"mimeType":"image/png",
			"name":"ParementNice.exr"
		},
		{
			"bufferView":9,
			"mimeType":"image/png",
			"name":"ParementNice.exr"
		}
	],
	"accessors":[
		{
			"bufferView":0,
			"componentType":5126,
			"count":240,
			"max":[
				0.9510578513145447,
				1,
				0.9999999403953552
			],
			"min":[
				-0.9510578513145447,
				-1,
				-0.9999999403953552
			],
			"type":"VEC3"
		},
		{
			"bufferView":1,
			"componentType":5126,
			"count":240,
			"type":"VEC3"
		},
		{
			"bufferView":2,
			"componentType":5126,
			"count":240,
			"type":"VEC2"
		},
		{
			"bufferView":3,
			"componentType":5123,
			"count":240,
			"type":"SCALAR"
		},
		{
			"bufferView":4,
			"componentType":5126,
			"count":4225,
			"max":[
				1,
				0,
				1
			],
			"min":[
				-1,
				0,
				-1
			],
			"type":"VEC3"
		},
		{
			"bufferView":5,
			"componentType":5126,
			"count":4225,
			"type":"VEC3"
		},
		{
			"bufferView":6,
			"componentType":5126,
			"count":4225,
			"type":"VEC2"
		},
		{
			"bufferView":7,
			"componentType":5123,
			"count":24576,
			"type":"SCALAR"
		},
		{
			"bufferView":10,
			"componentType":5126,
			"count":240,
			"max":[
				0.9510578513145447,
				1,
				0.9999999403953552
			],
			"min":[
				-0.9510578513145447,
				-1,
				-0.9999999403953552
			],
			"type":"VEC3"
		},
		{
			"bufferView":11,
			"componentType":5126,
			"count":240,
			"type":"VEC3"
		},
		{
			"bufferView":12,
			"componentType":5126,
			"count":240,
			"type":"VEC2"
		},
		{
			"bufferView":13,
			"componentType":5126,
			"count":240,
			"max":[
				0.9510578513145447,
				1,
				0.9999999403953552
			],
			"min":[
				-0.9510578513145447,
				-1,
				-0.9999999403953552
			],
			"type":"VEC3"
		},
		{
			"bufferView":14,
			"componentType":5126,
			"count":240,
			"type":"VEC3"
		},
		{
			"bufferView":15,
			"componentType":5126,
			"count":240,
			"type":"VEC2"
		},
		{
			"bufferView":16,
			"componentType":5126,
			"count":2,
			"max":[
				2.9166666666666665
			],
			"min":[
				0.041666666666666664
			],
			"type":"SCALAR"
		},
		{
			"bufferView":17,
			"componentType":5126,
			"count":2,
			"type":"VEC3"
		},
		{
			"bufferView":18,
			"componentType":5126,
			"count":70,
			"max":[
				2.9166666666666665
			],
			"min":[
				0.041666666666666664
			],
			"type":"SCALAR"
		},
		{
			"bufferView":19,
			"componentType":5126,
			"count":70,
			"type":"VEC4"
		},
		{
			"bufferView":20,
			"componentType":5126,
			"count":2,
			"type":"VEC3"
		},
		{
			"bufferView":21,
			"componentType":5126,
			"count":70,
			"type":"VEC4"
		},
		{
			"bufferView":22,
			"componentType":5126,
			"count":2,
			"type":"VEC3"
		},
		{
			"bufferView":23,
			"componentType":5126,
			"count":70,
			"type":"VEC4"
		},
		{
			"bufferView":24,
			"componentType":5126,
			"count":70,
			"type":"VEC3"
		},
		{
			"bufferView":25,
			"componentType":5126,
			"count":70,
			"type":"VEC4"
		},
		{
			"bufferView":26,
			"componentType":5126,
			"count":70,
			"type":"VEC3"
		},
		{
			"bufferView":27,
			"componentType":5126,
			"count":70,
			"type":"VEC4"
		},
		{
			"bufferView":28,
			"componentType":5126,
			"count":70,
			"type":"VEC3"
		},
		{
			"bufferView":29,
			"componentType":5126,
			"count":70,
			"type":"VEC4"
		},
		{
			"bufferView":30,
			"componentType":5126,
			"count":70,
			"type":"VEC3"
		},
		{
			"bufferView":31,
			"componentType":5126,
			"count":2,
			"type":"VEC4"
		},
		{
			"bufferView":32,
			"componentType":5126,
			"count":70,
			"type":"VEC3"
		},
		{
			"bufferView":33,
			"componentType":5126,
			"count":2,
			"type":"VEC4"
		},
		{
			"bufferView":34,
			"componentType":5126,
			"count":70,
			"type":"VEC3"
		},
		{
			"bufferView":35,
			"componentType":5126,
			"count":2,
			"type":"VEC4"
		}
	],
	"bufferViews":[
		{
			"buffer":0,
			"byteLength":2880,
			"byteOffset":0,
			"target":34962
		},
		{
			"buffer":0,
			"byteLength":2880,
			"byteOffset":2880,
			"target":34962
		},
		{
			"buffer":0,
			"byteLength":1920,
			"byteOffset":5760,
			"target":34962
		},
		{
			"buffer":0,
			"byteLength":480,
			"byteOffset":7680,
			"target":34963
		},
		{
			"buffer":0,
			"byteLength":50700,
			"byteOffset":8160,
			"target":34962
		},
		{
			"buffer":0,
			"byteLength":50700,
			"byteOffset":58860,
			"target":34962
		},
		{
			"buffer":0,
			"byteLength":33800,
			"byteOffset":109560,
			"target":34962
		},
		{
			"buffer":0,
			"byteLength":49152,
			"byteOffset":143360,
			"target":34963
		},
		{
			"buffer":0,
			"byteLength":1928814,
			"byteOffset":192512
		},
		{
			"buffer":0,
			"byteLength":312941,
			"byteOffset":2121328
		},
		{
			"buffer":0,
			"byteLength":2880,
			"byteOffset":2434272,
			"target":34962
		},
		{
			"buffer":0,
			"byteLength":2880,
			"byteOffset":2437152,
			"target":34962
		},
		{
			"buffer":0,
			"byteLength":1920,
			"byteOffset":2440032,
			"target":34962
		},
		{
			"buffer":0,
			"byteLength":2880,
			"byteOffset":2441952,
			"target":34962
		},
		{
			"buffer":0,
			"byteLength":2880,
			"byteOffset":2444832,
			"target":34962
		},
		{
			"buffer":0,
			"byteLength":1920,
			"byteOffset":2447712,
			"target":34962
		},
		{
			"buffer":0,
			"byteLength":8,
			"byteOffset":2449632
		},
		{
			"buffer":0,
			"byteLength":24,
			"byteOffset":2449640
		},
		{
			"buffer":0,
			"byteLength":280,
			"byteOffset":2449664
		},
		{
			"buffer":0,
			"byteLength":1120,
			"byteOffset":2449944
		},
		{
			"buffer":0,
			"byteLength":24,
			"byteOffset":2451064
		},
		{
			"buffer":0,
			"byteLength":1120,
			"byteOffset":2451088
		},
		{
			"buffer":0,
			"byteLength":24,
			"byteOffset":2452208
		},
		{
			"buffer":0,
			"byteLength":1120,
			"byteOffset":2452232
		},
		{
			"buffer":0,
			"byteLength":840,
			"byteOffset":2453352
		},
		{
			"buffer":0,
			"byteLength":1120,
			"byteOffset":2454192
		},
		{
			"buffer":0,
			"byteLength":840,
			"byteOffset":2455312
		},
		{
			"buffer":0,
			"byteLength":1120,
			"byteOffset":2456152
		},
		{
			"buffer":0,
			"byteLength":840,
			"byteOffset":2457272
		},
		{
			"buffer":0,
			"byteLength":1120,
			"byteOffset":2458112
		},
		{
			"buffer":0,
			"byteLength":840,
			"byteOffset":2459232
		},
		{
			"buffer":0,
			"byteLength":32,
			"byteOffset":2460072
		},
		{
			"buffer":0,
			"byteLength":840,
			"byteOffset":2460104
		},
		{
			"buffer":0,
			"byteLength":32,
			"byteOffset":2460944
		},
		{
			"buffer":0,
			"byteLength":840,
			"byteOffset":2460976
		},
		{
			"buffer":0,
			"byteLength":32,
			"byteOffset":2461816
		}
	],
	"samplers":[
		{
			"magFilter":9729,
			"minFilter":9987
		}
	],
	"buffers":[
		{
			"byteLength":2461848,
			"uri":"data:application/octet-stream;base64,"
		}
	]
}
